# xmcd CD database file generated by Grip 3.2.0
# 
# Track frame offsets:
#       150
#       7373
#       36783
#       50290
#       57119
#       82334
#       105425
#       117948
#       142983
#       159595
#       186375
#       198394
#       221477
# 
# Disc length: 3098 seconds
# 
# Revision: 3
# Processed by: cddbd v1.5.2PL0 Copyright (c) Steve Scherf et al.
# Submitted via: Grip 3.2.0
# 
DISCID=b80c180d
DTITLE=Tigran Hamasyan - A Fable
DYEAR=2011
DGENRE=Jazz
TTITLE0=Rain Shadow
TTITLE1=What the Waves Brought
TTITLE2=The Spinners
TTITLE3=Illusion
TTITLE4=Samsara
TTITLE5=Longing
TTITLE6=Carnaval
TTITLE7=The Legend of the Moon
TTITLE8=Someday My Prince Will Come
TTITLE9=Kakavik (the little partridge)
TTITLE10=A Memory that Become a Dream
TTITLE11=A Fable
TTITLE12=Mother, Where Are You?
EXTD=YEAR: 2011
EXTT0=
EXTT1=
EXTT2=
EXTT3=
EXTT4=
EXTT5=
EXTT6=
EXTT7=
EXTT8=
EXTT9=
EXTT10=
EXTT11=
EXTT12=
PLAYORDER=
